# xmcd
#
# Track frame offsets:
#	150
#	17709
#	33158
#	50547
#	66356
#	81135
#	99974
#	115803
#	133202
#	150061
#
# Disc length: 2219 seconds
#
# Revision: 1
# Processed by: cddbd v1.4PL0 Copyright (c) Steve Scherf et al.
# Submitted via: audiograbber 1.81.02
#
DISCID=7308a90a
DTITLE=DANIJELA - Plesi sa mnom
DYEAR=1900
DGENRE=
TTITLE0=To Nije To
TTITLE1=Necu Nikoga
TTITLE2=Grube Rijeci
TTITLE3=U Zivotu Mom
TTITLE4=Gladujem
TTITLE5=Rano Je Rano
TTITLE6=Virus
TTITLE7=Plesi Sa Mnom
TTITLE8=Odavno Zauvijek
TTITLE9=Ovako Ne Mogu Dalje
EXTD=
EXTT0=
EXTT1=
EXTT2=
EXTT3=
EXTT4=
EXTT5=
EXTT6=
EXTT7=
EXTT8=
EXTT9=
PLAYORDER=
